<svg>
<symbol id="circle-arrow-right"  viewBox="0 0 15 15" fill="none" xmlns="http://www.w3.org/2000/svg">
<g clip-path="url(#clip0_1915_7843)">
<path fill-rule="evenodd" clip-rule="evenodd" d="M13.8281 7.5C13.8281 9.17832 13.1614 10.7879 11.9747 11.9747C10.7879 13.1614 9.17832 13.8281 7.5 13.8281C5.82168 13.8281 4.21209 13.1614 3.02534 11.9747C1.83859 10.7879 1.17188 9.17832 1.17188 7.5C1.17188 5.82168 1.83859 4.21209 3.02534 3.02534C4.21209 1.83859 5.82168 1.17188 7.5 1.17188C9.17832 1.17188 10.7879 1.83859 11.9747 3.02534C13.1614 4.21209 13.8281 5.82168 13.8281 7.5ZM15 7.5C15 9.48912 14.2098 11.3968 12.8033 12.8033C11.3968 14.2098 9.48912 15 7.5 15C5.51088 15 3.60322 14.2098 2.1967 12.8033C0.790176 11.3968 0 9.48912 0 7.5C0 5.51088 0.790176 3.60322 2.1967 2.1967C3.60322 0.790176 5.51088 0 7.5 0C9.48912 0 11.3968 0.790176 12.8033 2.1967C14.2098 3.60322 15 5.51088 15 7.5ZM7.00312 5.18438L8.61562 6.79688H3.75V8.20312H8.61562L7.00312 9.81563L7.99687 10.8094L10.8094 7.99687C10.941 7.86504 11.015 7.68633 11.015 7.5C11.015 7.31367 10.941 7.13496 10.8094 7.00312L7.99687 4.19062L7.00312 5.18438Z" fill="white"/>
</g>
<defs>
<clipPath id="clip0_1915_7843">
<rect width="15" height="15" rx="7.5" fill="white"/>
</clipPath>
</defs>
</symbol>
<symbol id="circle-arrow-bottom"  viewBox="0 0 20 19" fill="none" xmlns="http://www.w3.org/2000/svg">
<path fill-rule="evenodd" clip-rule="evenodd" d="M10 17.5156C7.76224 17.5156 5.61612 16.6711 4.03379 15.1679C2.45145 13.6647 1.5625 11.6259 1.5625 9.5C1.5625 7.37412 2.45145 5.33532 4.03379 3.8321C5.61612 2.32888 7.76224 1.48437 10 1.48437C12.2378 1.48437 14.3839 2.32888 15.9662 3.8321C17.5486 5.33532 18.4375 7.37412 18.4375 9.5C18.4375 11.6259 17.5486 13.6647 15.9662 15.1679C14.3839 16.6711 12.2378 17.5156 10 17.5156ZM10 19C7.34783 19 4.8043 17.9991 2.92893 16.2175C1.05357 14.4359 0 12.0196 0 9.5C0 6.98044 1.05357 4.56408 2.92893 2.78249C4.8043 1.00089 7.34783 -5.44882e-09 10 -4.30663e-09C12.6522 -3.16444e-09 15.1957 1.00089 17.0711 2.78249C18.9464 4.56408 20 6.98044 20 9.5C20 12.0196 18.9464 14.4359 17.0711 16.2175C15.1957 17.9991 12.6522 19 10 19ZM13.0875 8.87062L10.9375 10.9131V4.75L9.0625 4.75V10.9131L6.9125 8.87062L5.5875 10.1294L9.3375 13.6919C9.51328 13.8587 9.75156 13.9523 10 13.9523C10.2484 13.9523 10.4867 13.8587 10.6625 13.6919L14.4125 10.1294L13.0875 8.87062Z" fill="#B8DD62"/>
<path fill-rule="evenodd" clip-rule="evenodd" d="M19.3939 9.5C19.3939 7.13938 18.4061 4.87389 16.6452 3.20235C14.8841 1.53055 12.4939 0.590062 10 0.590062C7.50613 0.590062 5.1159 1.53055 3.35475 3.20235C1.59386 4.87389 0.60606 7.13938 0.60606 9.5C0.60606 11.8606 1.59386 14.1261 3.35475 15.7977C5.1159 17.4694 7.50613 18.4099 10 18.4099C12.4939 18.4099 14.8841 17.4694 16.6452 15.7977C18.4061 14.1261 19.3939 11.8606 19.3939 9.5ZM17.0683 2.77986C18.9445 4.56085 20 6.978 20 9.5C20 12.022 18.9445 14.4392 17.0683 16.2201C15.1924 18.0009 12.6497 19 10 19C7.35028 19 4.80758 18.0009 2.93166 16.2201C1.05548 14.4392 0 12.022 0 9.5C0 6.978 1.05548 4.56085 2.93166 2.77986C4.80758 0.999122 7.35028 -5.44777e-09 10 -4.30663e-09C12.6497 -3.1655e-09 15.1924 0.999122 17.0683 2.77986ZM17.8788 9.5C17.8788 7.52084 17.0506 5.62118 15.5739 4.21936C14.0969 2.8173 12.092 2.02834 10 2.02834C7.90797 2.02834 5.90313 2.8173 4.42613 4.21936C2.94938 5.62118 2.12121 7.52084 2.12121 9.5C2.12121 11.4792 2.94938 13.3788 4.42613 14.7806C5.90313 16.1827 7.90797 16.9717 10 16.9717C12.092 16.9717 14.0969 16.1827 15.5739 14.7806C17.0506 13.3788 17.8788 11.4792 17.8788 9.5ZM15.997 3.79688C17.589 5.30813 18.4848 7.35945 18.4848 9.5C18.4848 11.6405 17.589 13.6919 15.997 15.2031C14.4052 16.7141 12.2479 17.5617 10 17.5617C7.75212 17.5617 5.59481 16.7141 4.00303 15.2031C2.411 13.6919 1.51515 11.6405 1.51515 9.5C1.51515 7.35945 2.411 5.30813 4.00303 3.79688C5.59481 2.28587 7.75212 1.43828 10 1.43828C12.2479 1.43828 14.4052 2.28587 15.997 3.79688ZM14.7129 10.1098L10.854 13.7729C10.6261 13.9889 10.3188 14.1091 10 14.1091C9.68122 14.1091 9.37399 13.9891 9.14616 13.7731L5.28713 10.1098L7.00606 8.47812L8.78788 10.1695V4.60248L11.2121 4.60248V10.1695L12.7824 8.67893L12.9939 8.89017L13.2055 8.67893L14.7129 10.1098ZM12.9939 9.30223L10.6061 11.5689V5.19255L9.39394 5.19255V11.5689L7.00606 9.30223L6.15529 10.1098L9.56899 13.3503C9.56897 13.3503 9.56901 13.3503 9.56899 13.3503C9.68207 13.4575 9.83699 13.519 10 13.519C10.163 13.519 10.3179 13.4576 10.4309 13.3504C10.431 13.3504 10.4309 13.3504 10.4309 13.3504L13.8447 10.1098L12.9939 9.30223Z" fill="#B8DD62"/>
</symbol>
<symbol id="twitter" viewBox="0 0 24 24" fill="none" xmlns="http://www.w3.org/2000/svg">
<path d="M17.1761 4.24268H19.9362L13.9061 11.0201L21 20.2427H15.4456L11.0951 14.6493L6.11723 20.2427H3.35544L9.80517 12.9935L3 4.24268H8.69545L12.6279 9.3553L17.1761 4.24268ZM16.2073 18.6181H17.7368L7.86441 5.78196H6.2232L16.2073 18.6181Z" fill="white"/>
</symbol>
<symbol id="linkedin"  viewBox="0 0 24 24" fill="none" xmlns="http://www.w3.org/2000/svg">
<path fill-rule="evenodd" clip-rule="evenodd" d="M4.5 3.24268C3.67157 3.24268 3 3.91425 3 4.74268V19.7427C3 20.5711 3.67157 21.2427 4.5 21.2427H19.5C20.3284 21.2427 21 20.5711 21 19.7427V4.74268C21 3.91425 20.3284 3.24268 19.5 3.24268H4.5ZM8.52076 7.2454C8.52639 8.20165 7.81061 8.79087 6.96123 8.78665C6.16107 8.78243 5.46357 8.1454 5.46779 7.24681C5.47201 6.40165 6.13998 5.72243 7.00764 5.74212C7.88795 5.76181 8.52639 6.40728 8.52076 7.2454ZM12.2797 10.0044H9.75971H9.7583V18.5643H12.4217V18.3646C12.4217 17.9847 12.4214 17.6047 12.4211 17.2246C12.4203 16.2108 12.4194 15.1959 12.4246 14.1824C12.426 13.9363 12.4372 13.6804 12.5005 13.4455C12.7381 12.568 13.5271 12.0013 14.4074 12.1406C14.9727 12.2291 15.3467 12.5568 15.5042 13.0898C15.6013 13.423 15.6449 13.7816 15.6491 14.129C15.6605 15.1766 15.6589 16.2242 15.6573 17.2719C15.6567 17.6417 15.6561 18.0117 15.6561 18.3815V18.5629H18.328V18.3576C18.328 17.9056 18.3278 17.4537 18.3275 17.0018C18.327 15.8723 18.3264 14.7428 18.3294 13.6129C18.3308 13.1024 18.276 12.599 18.1508 12.1054C17.9638 11.3713 17.5771 10.7638 16.9485 10.3251C16.5027 10.0129 16.0133 9.81178 15.4663 9.78928C15.404 9.78669 15.3412 9.7833 15.2781 9.77989C14.9984 9.76477 14.7141 9.74941 14.4467 9.80334C13.6817 9.95662 13.0096 10.3068 12.5019 10.9241C12.4429 10.9949 12.3852 11.0668 12.2991 11.1741L12.2797 11.1984V10.0044ZM5.68164 18.5671H8.33242V10.01H5.68164V18.5671Z" fill="white"/>
</symbol>
<symbol id="users"  viewBox="0 0 19 15" fill="none" xmlns="http://www.w3.org/2000/svg">
<path opacity="0.5" d="M9.5192 9.4581C7.94195 9.4581 6.64141 8.18523 6.66908 6.58031C6.66908 5.00305 7.94195 3.70251 9.5192 3.70251C11.0965 3.70251 12.397 5.00305 12.397 6.58031C12.397 8.18523 11.1241 9.4581 9.5192 9.4581ZM9.5192 5.03072C8.68907 5.03072 7.96962 5.75017 7.96962 6.58031C7.96962 7.43811 8.68907 8.12989 9.5192 8.12989C10.377 8.12989 11.0688 7.43811 11.0688 6.58031C11.0688 5.75017 10.377 5.03072 9.5192 5.03072ZM14.8597 5.03072C13.6145 5.03072 12.646 4.06224 12.646 2.81704C12.646 1.59951 13.6145 0.603349 14.8597 0.603349C16.0773 0.603349 17.0734 1.59951 17.0734 2.81704C17.0734 4.06224 16.0773 5.03072 14.8597 5.03072ZM10.9028 10.3436C13.0888 10.3436 14.8597 12.0038 14.8597 14.0515C14.8597 14.4666 14.5 14.771 14.0573 14.771H5.00882C4.56608 14.771 4.23402 14.4666 4.23402 14.0515C4.23402 12.0038 5.9773 10.3436 8.16332 10.3436H10.9028ZM5.61758 13.4427H13.4485C13.1441 12.4466 12.1203 11.6718 10.9028 11.6718H8.13565C6.91812 11.6718 5.89429 12.4466 5.61758 13.4427ZM15.9389 5.9162C17.2948 5.9162 18.4016 7.07839 18.4016 8.51728C18.4016 8.79399 18.1803 9.01536 17.9035 9.01536H12.3693C12.9504 8.37893 13.2825 7.52112 13.2825 6.58031C13.2825 6.44195 13.2548 6.3036 13.2548 6.16524C13.5592 6.02688 13.8912 5.9162 14.251 5.9162H15.9389ZM5.75593 6.58031C5.75593 7.52112 6.11566 8.37893 6.69675 9.01536H1.16253C0.885822 9.01536 0.692124 8.79399 0.692124 8.51728C0.692124 7.07839 1.7713 5.9162 3.12718 5.9162H4.81512C5.17484 5.9162 5.50689 5.99921 5.81128 6.16524C5.78361 6.3036 5.75593 6.44195 5.75593 6.58031ZM4.23402 5.03072C2.98883 5.03072 2.02034 4.06224 2.02034 2.81704C2.02034 1.59951 2.98883 0.603349 4.23402 0.603349C5.45155 0.603349 6.44771 1.59951 6.44771 2.81704C6.44771 4.06224 5.45155 5.03072 4.23402 5.03072Z" fill="#111111"/>
</symbol>
<symbol id="star"  viewBox="0 0 16 15" fill="none" xmlns="http://www.w3.org/2000/svg">
<path d="M8.64062 1.24219L10.418 4.87891L14.3281 5.45312C14.6562 5.50781 14.9297 5.72656 15.0391 6.05469C15.1484 6.35547 15.0664 6.71094 14.8203 6.92969L11.9766 9.74609L12.6602 13.7383C12.7148 14.0664 12.5781 14.3945 12.3047 14.5859C12.0312 14.8047 11.6758 14.8047 11.375 14.668L7.875 12.7812L4.34766 14.668C4.07422 14.8047 3.71875 14.8047 3.44531 14.5859C3.17188 14.3945 3.03516 14.0664 3.08984 13.7383L3.74609 9.74609L0.902344 6.92969C0.683594 6.71094 0.601562 6.35547 0.683594 6.05469C0.792969 5.72656 1.06641 5.50781 1.39453 5.45312L5.33203 4.87891L7.08203 1.24219C7.21875 0.941406 7.51953 0.75 7.875 0.75C8.20312 0.75 8.50391 0.941406 8.64062 1.24219Z" fill="#88B24C"/>
</symbol>
<symbol id="star-gray"  viewBox="0 0 16 15" fill="none" xmlns="http://www.w3.org/2000/svg">
<path d="M8.64062 1.24219L10.418 4.87891L14.3281 5.45312C14.6562 5.50781 14.9297 5.72656 15.0391 6.05469C15.1484 6.35547 15.0664 6.71094 14.8203 6.92969L11.9766 9.74609L12.6602 13.7383C12.7148 14.0664 12.5781 14.3945 12.3047 14.5859C12.0312 14.8047 11.6758 14.8047 11.375 14.668L7.875 12.7812L4.34766 14.668C4.07422 14.8047 3.71875 14.8047 3.44531 14.5859C3.17188 14.3945 3.03516 14.0664 3.08984 13.7383L3.74609 9.74609L0.902344 6.92969C0.683594 6.71094 0.601562 6.35547 0.683594 6.05469C0.792969 5.72656 1.06641 5.50781 1.39453 5.45312L5.33203 4.87891L7.08203 1.24219C7.21875 0.941406 7.51953 0.75 7.875 0.75C8.20312 0.75 8.50391 0.941406 8.64062 1.24219Z" fill="#EDF1F2"/>
</symbol>
<symbol id="close"  viewBox="0 0 12 12" fill="none" xmlns="http://www.w3.org/2000/svg">
<path opacity="0.8" d="M10.6875 2.71875L7.40625 6L10.6875 9.3125C11.0938 9.6875 11.0938 10.3438 10.6875 10.7188C10.3125 11.125 9.65625 11.125 9.28125 10.7188L6 7.4375L2.6875 10.7188C2.3125 11.125 1.65625 11.125 1.28125 10.7188C0.875 10.3438 0.875 9.6875 1.28125 9.3125L4.5625 6L1.28125 2.71875C0.875 2.34375 0.875 1.6875 1.28125 1.3125C1.65625 0.90625 2.3125 0.90625 2.6875 1.3125L6 4.59375L9.28125 1.3125C9.65625 0.90625 10.3125 0.90625 10.6875 1.3125C11.0938 1.6875 11.0938 2.34375 10.6875 2.71875Z" fill="white"/>
</symbol>
<symbol id="swiper" viewBox="0 0 24 25" fill="none" xmlns="http://www.w3.org/2000/svg">
<path fill-rule="evenodd" clip-rule="evenodd" d="M1.85655 12.5006C1.85655 9.70354 2.91212 7.02104 4.79105 5.04321C6.66999 3.06539 9.21837 1.95426 11.8756 1.95426C14.5328 1.95426 17.0812 3.06539 18.9601 5.04321C20.839 7.02104 21.8946 9.70355 21.8946 12.5006C21.8946 15.2977 20.839 17.9802 18.9601 19.958C17.0812 21.9358 14.5328 23.047 11.8756 23.047C9.21837 23.047 6.66999 21.9358 4.79105 19.958C2.91212 17.9802 1.85655 15.2977 1.85655 12.5006ZM0.0011684 12.5006C0.00116869 9.18557 1.25222 6.0063 3.4791 3.66221C5.70599 1.31812 8.72629 0.00122702 11.8756 0.00122729C15.0249 0.00122757 18.0452 1.31812 20.2721 3.66221C22.499 6.0063 23.75 9.18557 23.75 12.5006C23.75 15.8157 22.4989 18.9949 20.2721 21.339C18.0452 23.6831 15.0249 25 11.8756 25C8.72629 25 5.70599 23.6831 3.4791 21.339C1.25222 18.9949 0.0011681 15.8157 0.0011684 12.5006ZM12.6623 16.3598L10.1093 13.6724L17.8128 13.6724L17.8128 11.3288L10.1093 11.3288L12.6623 8.64143L11.0889 6.98526L6.636 11.6725C6.42753 11.8922 6.31043 12.1901 6.31043 12.5006C6.31043 12.8111 6.42753 13.109 6.636 13.3287L11.0889 18.016L12.6623 16.3598Z" fill="#88B24C"/>
<path fill-rule="evenodd" clip-rule="evenodd" d="M11.8756 24.2425C14.8262 24.2425 17.6579 23.0078 19.7473 20.8068C21.8369 18.6054 23.0125 15.6178 23.0125 12.5006C23.0125 9.38343 21.8369 6.39579 19.7473 4.19446C17.6579 1.99346 14.8262 0.758765 11.8756 0.758765C8.92496 0.758765 6.09324 1.99346 4.0039 4.19446C1.91426 6.39579 0.73871 9.38343 0.73871 12.5006C0.738709 15.6178 1.91426 18.6054 4.0039 20.8068C6.09323 23.0078 8.92496 24.2425 11.8756 24.2425ZM20.2753 21.3356C18.0492 23.6807 15.0279 25 11.8756 25C8.72324 25 5.70195 23.6807 3.47582 21.3356C1.25001 18.9908 0.0011681 15.8126 0.0011684 12.5006C0.00116869 9.18862 1.25001 6.0104 3.47582 3.66562C5.70195 1.32051 8.72324 0.00122702 11.8756 0.00122729C15.0279 0.00122757 18.0492 1.32051 20.2753 3.66562C22.5012 6.01041 23.75 9.18862 23.75 12.5006C23.75 15.8126 22.5012 18.9908 20.2753 21.3356ZM11.8756 22.3486C14.3494 22.3486 16.7239 21.3135 18.4761 19.4676C20.2286 17.6214 21.2147 15.1155 21.2147 12.5006C21.2147 9.88571 20.2286 7.37978 18.4761 5.53361C16.7239 3.68777 14.3494 2.65261 11.8756 2.65261C9.40175 2.65261 7.0273 3.68777 5.27511 5.53361C3.52262 7.37978 2.53647 9.88571 2.53647 12.5006C2.53647 15.1155 3.52262 17.6214 5.27511 19.4676C7.02729 21.3135 9.40175 22.3486 11.8756 22.3486ZM19.0041 19.9965C17.1152 21.9864 14.5511 23.1062 11.8756 23.1062C9.20003 23.1062 6.63601 21.9864 4.74703 19.9964C2.85836 18.0068 1.79892 15.3103 1.79892 12.5006C1.79892 9.6909 2.85836 6.99439 4.74703 5.00477C6.63601 3.01483 9.20003 1.89507 11.8756 1.89507C14.5511 1.89507 17.1152 3.01483 19.0041 5.00478C20.8928 6.99439 21.9522 9.6909 21.9522 12.5006C21.9522 15.3103 20.8928 18.0068 19.0041 19.9965ZM11.1133 18.3914L6.53468 13.568C6.2647 13.2833 6.11449 12.8991 6.11449 12.5006C6.11449 12.1022 6.26454 11.7181 6.53452 11.4334L11.1133 6.60982L13.1529 8.75837L11.0387 10.9855L17.9972 10.9855L17.9972 14.0157L11.0387 14.0157L12.9019 15.9784L12.6378 16.2429L12.9019 16.5073L11.1133 18.3914ZM12.1228 16.2429L9.28953 13.2582L17.2596 13.2582L17.2596 11.7431L9.28953 11.7431L12.1228 8.75837L11.1133 7.69496L7.06292 11.9619C7.06294 11.9618 7.06289 11.9619 7.06292 11.9619C6.92895 12.1032 6.85203 12.2969 6.85203 12.5006C6.85203 12.7044 6.92888 12.8979 7.06284 13.0393C7.06287 13.0393 7.06282 13.0392 7.06284 13.0393L11.1133 17.3063L12.1228 16.2429Z" fill="#88B24C"/>
</symbol>
    <symbol id="circle-arrow-right" viewBox="0 0 15 15" fill="none" xmlns="http://www.w3.org/2000/svg">
        <g clip-path="url(#clip0_1915_7843)">
            <path fill-rule="evenodd" clip-rule="evenodd"
                d="M13.8281 7.5C13.8281 9.17832 13.1614 10.7879 11.9747 11.9747C10.7879 13.1614 9.17832 13.8281 7.5 13.8281C5.82168 13.8281 4.21209 13.1614 3.02534 11.9747C1.83859 10.7879 1.17188 9.17832 1.17188 7.5C1.17188 5.82168 1.83859 4.21209 3.02534 3.02534C4.21209 1.83859 5.82168 1.17188 7.5 1.17188C9.17832 1.17188 10.7879 1.83859 11.9747 3.02534C13.1614 4.21209 13.8281 5.82168 13.8281 7.5ZM15 7.5C15 9.48912 14.2098 11.3968 12.8033 12.8033C11.3968 14.2098 9.48912 15 7.5 15C5.51088 15 3.60322 14.2098 2.1967 12.8033C0.790176 11.3968 0 9.48912 0 7.5C0 5.51088 0.790176 3.60322 2.1967 2.1967C3.60322 0.790176 5.51088 0 7.5 0C9.48912 0 11.3968 0.790176 12.8033 2.1967C14.2098 3.60322 15 5.51088 15 7.5ZM7.00312 5.18438L8.61562 6.79688H3.75V8.20312H8.61562L7.00312 9.81563L7.99687 10.8094L10.8094 7.99687C10.941 7.86504 11.015 7.68633 11.015 7.5C11.015 7.31367 10.941 7.13496 10.8094 7.00312L7.99687 4.19062L7.00312 5.18438Z"
                fill="white" />
        </g>
        <defs>
            <clipPath id="clip0_1915_7843">
                <rect width="15" height="15" rx="7.5" fill="white" />
            </clipPath>
        </defs>
    </symbol>
    <symbol id="circle-arrow-bottom" viewBox="0 0 20 19" fill="none" xmlns="http://www.w3.org/2000/svg">
        <path fill-rule="evenodd" clip-rule="evenodd"
            d="M10 17.5156C7.76224 17.5156 5.61612 16.6711 4.03379 15.1679C2.45145 13.6647 1.5625 11.6259 1.5625 9.5C1.5625 7.37412 2.45145 5.33532 4.03379 3.8321C5.61612 2.32888 7.76224 1.48437 10 1.48437C12.2378 1.48437 14.3839 2.32888 15.9662 3.8321C17.5486 5.33532 18.4375 7.37412 18.4375 9.5C18.4375 11.6259 17.5486 13.6647 15.9662 15.1679C14.3839 16.6711 12.2378 17.5156 10 17.5156ZM10 19C7.34783 19 4.8043 17.9991 2.92893 16.2175C1.05357 14.4359 0 12.0196 0 9.5C0 6.98044 1.05357 4.56408 2.92893 2.78249C4.8043 1.00089 7.34783 -5.44882e-09 10 -4.30663e-09C12.6522 -3.16444e-09 15.1957 1.00089 17.0711 2.78249C18.9464 4.56408 20 6.98044 20 9.5C20 12.0196 18.9464 14.4359 17.0711 16.2175C15.1957 17.9991 12.6522 19 10 19ZM13.0875 8.87062L10.9375 10.9131V4.75L9.0625 4.75V10.9131L6.9125 8.87062L5.5875 10.1294L9.3375 13.6919C9.51328 13.8587 9.75156 13.9523 10 13.9523C10.2484 13.9523 10.4867 13.8587 10.6625 13.6919L14.4125 10.1294L13.0875 8.87062Z"
            fill="#B8DD62" />
        <path fill-rule="evenodd" clip-rule="evenodd"
            d="M19.3939 9.5C19.3939 7.13938 18.4061 4.87389 16.6452 3.20235C14.8841 1.53055 12.4939 0.590062 10 0.590062C7.50613 0.590062 5.1159 1.53055 3.35475 3.20235C1.59386 4.87389 0.60606 7.13938 0.60606 9.5C0.60606 11.8606 1.59386 14.1261 3.35475 15.7977C5.1159 17.4694 7.50613 18.4099 10 18.4099C12.4939 18.4099 14.8841 17.4694 16.6452 15.7977C18.4061 14.1261 19.3939 11.8606 19.3939 9.5ZM17.0683 2.77986C18.9445 4.56085 20 6.978 20 9.5C20 12.022 18.9445 14.4392 17.0683 16.2201C15.1924 18.0009 12.6497 19 10 19C7.35028 19 4.80758 18.0009 2.93166 16.2201C1.05548 14.4392 0 12.022 0 9.5C0 6.978 1.05548 4.56085 2.93166 2.77986C4.80758 0.999122 7.35028 -5.44777e-09 10 -4.30663e-09C12.6497 -3.1655e-09 15.1924 0.999122 17.0683 2.77986ZM17.8788 9.5C17.8788 7.52084 17.0506 5.62118 15.5739 4.21936C14.0969 2.8173 12.092 2.02834 10 2.02834C7.90797 2.02834 5.90313 2.8173 4.42613 4.21936C2.94938 5.62118 2.12121 7.52084 2.12121 9.5C2.12121 11.4792 2.94938 13.3788 4.42613 14.7806C5.90313 16.1827 7.90797 16.9717 10 16.9717C12.092 16.9717 14.0969 16.1827 15.5739 14.7806C17.0506 13.3788 17.8788 11.4792 17.8788 9.5ZM15.997 3.79688C17.589 5.30813 18.4848 7.35945 18.4848 9.5C18.4848 11.6405 17.589 13.6919 15.997 15.2031C14.4052 16.7141 12.2479 17.5617 10 17.5617C7.75212 17.5617 5.59481 16.7141 4.00303 15.2031C2.411 13.6919 1.51515 11.6405 1.51515 9.5C1.51515 7.35945 2.411 5.30813 4.00303 3.79688C5.59481 2.28587 7.75212 1.43828 10 1.43828C12.2479 1.43828 14.4052 2.28587 15.997 3.79688ZM14.7129 10.1098L10.854 13.7729C10.6261 13.9889 10.3188 14.1091 10 14.1091C9.68122 14.1091 9.37399 13.9891 9.14616 13.7731L5.28713 10.1098L7.00606 8.47812L8.78788 10.1695V4.60248L11.2121 4.60248V10.1695L12.7824 8.67893L12.9939 8.89017L13.2055 8.67893L14.7129 10.1098ZM12.9939 9.30223L10.6061 11.5689V5.19255L9.39394 5.19255V11.5689L7.00606 9.30223L6.15529 10.1098L9.56899 13.3503C9.56897 13.3503 9.56901 13.3503 9.56899 13.3503C9.68207 13.4575 9.83699 13.519 10 13.519C10.163 13.519 10.3179 13.4576 10.4309 13.3504C10.431 13.3504 10.4309 13.3504 10.4309 13.3504L13.8447 10.1098L12.9939 9.30223Z"
            fill="#B8DD62" />
    </symbol>
    <symbol id="twitter" viewBox="0 0 24 24" fill="none" xmlns="http://www.w3.org/2000/svg">
        <path
            d="M17.1761 4.24268H19.9362L13.9061 11.0201L21 20.2427H15.4456L11.0951 14.6493L6.11723 20.2427H3.35544L9.80517 12.9935L3 4.24268H8.69545L12.6279 9.3553L17.1761 4.24268ZM16.2073 18.6181H17.7368L7.86441 5.78196H6.2232L16.2073 18.6181Z"
            fill="white" />
    </symbol>
    <symbol id="linkedin" viewBox="0 0 24 24" fill="none" xmlns="http://www.w3.org/2000/svg">
        <path fill-rule="evenodd" clip-rule="evenodd"
            d="M4.5 3.24268C3.67157 3.24268 3 3.91425 3 4.74268V19.7427C3 20.5711 3.67157 21.2427 4.5 21.2427H19.5C20.3284 21.2427 21 20.5711 21 19.7427V4.74268C21 3.91425 20.3284 3.24268 19.5 3.24268H4.5ZM8.52076 7.2454C8.52639 8.20165 7.81061 8.79087 6.96123 8.78665C6.16107 8.78243 5.46357 8.1454 5.46779 7.24681C5.47201 6.40165 6.13998 5.72243 7.00764 5.74212C7.88795 5.76181 8.52639 6.40728 8.52076 7.2454ZM12.2797 10.0044H9.75971H9.7583V18.5643H12.4217V18.3646C12.4217 17.9847 12.4214 17.6047 12.4211 17.2246C12.4203 16.2108 12.4194 15.1959 12.4246 14.1824C12.426 13.9363 12.4372 13.6804 12.5005 13.4455C12.7381 12.568 13.5271 12.0013 14.4074 12.1406C14.9727 12.2291 15.3467 12.5568 15.5042 13.0898C15.6013 13.423 15.6449 13.7816 15.6491 14.129C15.6605 15.1766 15.6589 16.2242 15.6573 17.2719C15.6567 17.6417 15.6561 18.0117 15.6561 18.3815V18.5629H18.328V18.3576C18.328 17.9056 18.3278 17.4537 18.3275 17.0018C18.327 15.8723 18.3264 14.7428 18.3294 13.6129C18.3308 13.1024 18.276 12.599 18.1508 12.1054C17.9638 11.3713 17.5771 10.7638 16.9485 10.3251C16.5027 10.0129 16.0133 9.81178 15.4663 9.78928C15.404 9.78669 15.3412 9.7833 15.2781 9.77989C14.9984 9.76477 14.7141 9.74941 14.4467 9.80334C13.6817 9.95662 13.0096 10.3068 12.5019 10.9241C12.4429 10.9949 12.3852 11.0668 12.2991 11.1741L12.2797 11.1984V10.0044ZM5.68164 18.5671H8.33242V10.01H5.68164V18.5671Z"
            fill="white" />
    </symbol>
    <symbol id="users" viewBox="0 0 19 15" fill="none" xmlns="http://www.w3.org/2000/svg">
        <path opacity="0.5"
            d="M9.5192 9.4581C7.94195 9.4581 6.64141 8.18523 6.66908 6.58031C6.66908 5.00305 7.94195 3.70251 9.5192 3.70251C11.0965 3.70251 12.397 5.00305 12.397 6.58031C12.397 8.18523 11.1241 9.4581 9.5192 9.4581ZM9.5192 5.03072C8.68907 5.03072 7.96962 5.75017 7.96962 6.58031C7.96962 7.43811 8.68907 8.12989 9.5192 8.12989C10.377 8.12989 11.0688 7.43811 11.0688 6.58031C11.0688 5.75017 10.377 5.03072 9.5192 5.03072ZM14.8597 5.03072C13.6145 5.03072 12.646 4.06224 12.646 2.81704C12.646 1.59951 13.6145 0.603349 14.8597 0.603349C16.0773 0.603349 17.0734 1.59951 17.0734 2.81704C17.0734 4.06224 16.0773 5.03072 14.8597 5.03072ZM10.9028 10.3436C13.0888 10.3436 14.8597 12.0038 14.8597 14.0515C14.8597 14.4666 14.5 14.771 14.0573 14.771H5.00882C4.56608 14.771 4.23402 14.4666 4.23402 14.0515C4.23402 12.0038 5.9773 10.3436 8.16332 10.3436H10.9028ZM5.61758 13.4427H13.4485C13.1441 12.4466 12.1203 11.6718 10.9028 11.6718H8.13565C6.91812 11.6718 5.89429 12.4466 5.61758 13.4427ZM15.9389 5.9162C17.2948 5.9162 18.4016 7.07839 18.4016 8.51728C18.4016 8.79399 18.1803 9.01536 17.9035 9.01536H12.3693C12.9504 8.37893 13.2825 7.52112 13.2825 6.58031C13.2825 6.44195 13.2548 6.3036 13.2548 6.16524C13.5592 6.02688 13.8912 5.9162 14.251 5.9162H15.9389ZM5.75593 6.58031C5.75593 7.52112 6.11566 8.37893 6.69675 9.01536H1.16253C0.885822 9.01536 0.692124 8.79399 0.692124 8.51728C0.692124 7.07839 1.7713 5.9162 3.12718 5.9162H4.81512C5.17484 5.9162 5.50689 5.99921 5.81128 6.16524C5.78361 6.3036 5.75593 6.44195 5.75593 6.58031ZM4.23402 5.03072C2.98883 5.03072 2.02034 4.06224 2.02034 2.81704C2.02034 1.59951 2.98883 0.603349 4.23402 0.603349C5.45155 0.603349 6.44771 1.59951 6.44771 2.81704C6.44771 4.06224 5.45155 5.03072 4.23402 5.03072Z"
            fill="#111111" />
    </symbol>
    <symbol id="counted-icon" fill="none" viewBox="0 0 58 58" xmlns="http://www.w3.org/2000/svg">
        <path fill="#B8DD62" fill-rule="evenodd"
            d="M49.528 17.097l-.334-.597a4.942 4.942 0 00-1.767-1.743l-16.02-9.24a4.775 4.775 0 00-2.387-.644h-.693a4.775 4.775 0 00-2.387.644L9.92 14.781a4.775 4.775 0 00-1.743 1.743l-.335.597a4.775 4.775 0 00-.644 2.387v18.503c.001.84.224 1.663.644 2.388l.335.597a5.087 5.087 0 001.743 1.743l16.044 9.24a4.584 4.584 0 002.387.644h.669a4.773 4.773 0 002.387-.645l16.02-9.263a4.538 4.538 0 001.743-1.743l.358-.597c.416-.727.638-1.55.645-2.388V19.484a4.773 4.773 0 00-.645-2.387zm-21.2-7.45h.692l13.99 8.07-14.325 8.261-14.325-8.26 13.967-8.07zm2.745 37.007l13.967-8.07.358-.597v-16.14l-14.325 8.286v16.521z"
            clip-rule="evenodd" />
    </symbol>

<symbol id="plan" width="15" height="15" viewBox="0 0 15 15" fill="none" xmlns="http://www.w3.org/2000/svg">
<path opacity="0.5" d="M7.5192 0.603349C7.79591 0.603349 8.01728 0.769376 8.12797 0.990745L10.0373 4.89237L14.271 5.5288C14.52 5.55648 14.7137 5.75017 14.7967 5.97154C14.8797 6.22058 14.8244 6.46962 14.6307 6.66332L11.5592 9.70714L12.2786 13.9962C12.334 14.2452 12.2233 14.5219 12.0296 14.6603C11.8082 14.7986 11.5315 14.8263 11.3101 14.7156L7.5192 12.6679L3.72826 14.7156C3.5069 14.8263 3.25786 14.7986 3.03649 14.6603C2.84279 14.5219 2.7321 14.2452 2.75978 13.9962L3.5069 9.70714L0.435403 6.66332C0.241706 6.46962 0.186364 6.22058 0.269377 5.97154C0.35239 5.75017 0.546088 5.55648 0.795128 5.5288L5.02881 4.89237L6.93811 0.990745C7.0488 0.769376 7.27016 0.603349 7.5192 0.603349ZM7.5192 2.78937L6.08031 5.80552C5.96962 5.99921 5.8036 6.13757 5.58223 6.16524L2.28937 6.63565L4.66908 8.98769C4.83511 9.15372 4.89045 9.37509 4.86278 9.59646L4.30936 12.8893L7.21482 11.3397C7.40852 11.229 7.65756 11.229 7.85126 11.3397L10.7567 12.8893L10.2033 9.59646C10.148 9.37509 10.231 9.15372 10.397 8.98769L12.749 6.63565L9.48385 6.16524C9.26248 6.13757 9.06879 5.99921 8.98577 5.80552L7.5192 2.78937Z" fill="#111111"/>
</symbol>
<symbol id="back"  viewBox="0 0 12 11" fill="none" xmlns="http://www.w3.org/2000/svg">
<path opacity="0.85" d="M11.3496 5.125C11.3496 5.48047 11.0703 5.75977 10.7402 5.75977H2.10742L5.48438 8.95898C5.73828 9.1875 5.73828 9.59375 5.50977 9.82227C5.28125 10.0762 4.90039 10.0762 4.64648 9.84766L0.177734 5.58203C0.0507812 5.45508 0 5.30273 0 5.125C0 4.97266 0.0507812 4.82031 0.177734 4.69336L4.64648 0.427734C4.90039 0.199219 5.28125 0.199219 5.50977 0.453125C5.73828 0.681641 5.73828 1.08789 5.48438 1.31641L2.10742 4.51562H10.7402C11.0957 4.51562 11.3496 4.79492 11.3496 5.125Z" fill="#0E3B44"/>
</symbol>
<symbol id="back-contact"  viewBox="0 0 9 8" fill="none" xmlns="http://www.w3.org/2000/svg">
<path d="M8.5 4.5C8.77614 4.5 9 4.27614 9 4C9 3.72386 8.77614 3.5 8.5 3.5L8.5 4.5ZM0.646447 3.64645C0.451184 3.84171 0.451184 4.15829 0.646447 4.35355L3.82843 7.53553C4.02369 7.7308 4.34027 7.7308 4.53553 7.53553C4.7308 7.34027 4.7308 7.02369 4.53553 6.82843L1.70711 4L4.53553 1.17157C4.7308 0.97631 4.7308 0.659728 4.53553 0.464466C4.34027 0.269204 4.02369 0.269204 3.82843 0.464466L0.646447 3.64645ZM8.5 3.5L1 3.5L1 4.5L8.5 4.5L8.5 3.5Z" fill="#0E3B44"/>
</symbol>
<symbol id="person" viewBox="0 0 13 15" fill="none" xmlns="http://www.w3.org/2000/svg">
<path opacity="0.85" d="M7.4375 9.0625C10.0898 9.0625 12.25 11.2227 12.25 13.875C12.25 14.3672 11.8398 14.75 11.375 14.75H0.875C0.382812 14.75 0 14.3672 0 13.875C0 11.2227 2.13281 9.0625 4.8125 9.0625H7.4375ZM1.3125 13.4375H10.9102C10.6914 11.7148 9.21484 10.375 7.4375 10.375H4.8125C3.00781 10.375 1.53125 11.7148 1.3125 13.4375ZM6.125 7.75C4.18359 7.75 2.625 6.19141 2.625 4.25C2.625 2.33594 4.18359 0.75 6.125 0.75C8.03906 0.75 9.625 2.33594 9.625 4.25C9.625 6.19141 8.03906 7.75 6.125 7.75ZM6.125 2.0625C4.89453 2.0625 3.9375 3.04688 3.9375 4.25C3.9375 5.48047 4.89453 6.4375 6.125 6.4375C7.32812 6.4375 8.3125 5.48047 8.3125 4.25C8.3125 3.04688 7.32812 2.0625 6.125 2.0625Z" fill="#0E3B44"/>
</symbol>
<symbol id="calendar" viewBox="0 0 13 15" fill="none" xmlns="http://www.w3.org/2000/svg">
<path opacity="0.85" d="M4.15625 2.5H8.09375V1.40625C8.09375 1.05078 8.36719 0.75 8.75 0.75C9.10547 0.75 9.40625 1.05078 9.40625 1.40625V2.5H10.5C11.457 2.5 12.25 3.29297 12.25 4.25V13C12.25 13.9844 11.457 14.75 10.5 14.75H1.75C0.765625 14.75 0 13.9844 0 13V4.25C0 3.29297 0.765625 2.5 1.75 2.5H2.84375V1.40625C2.84375 1.05078 3.11719 0.75 3.5 0.75C3.85547 0.75 4.15625 1.05078 4.15625 1.40625V2.5ZM1.3125 13C1.3125 13.2461 1.50391 13.4375 1.75 13.4375H10.5C10.7188 13.4375 10.9375 13.2461 10.9375 13V6H1.3125V13Z" fill="#0E3B44"/>
</symbol>
<symbol id="read" viewBox="0 0 14 15" fill="none" xmlns="http://www.w3.org/2000/svg">
<path opacity="0.85" d="M6.34375 4.03125C6.34375 3.67578 6.61719 3.375 7 3.375C7.35547 3.375 7.65625 3.67578 7.65625 4.03125V7.42188L9.98047 8.95312C10.2812 9.17188 10.3633 9.58203 10.1445 9.88281C9.95312 10.1836 9.54297 10.2656 9.24219 10.0469L6.61719 8.29688C6.45312 8.1875 6.34375 7.96875 6.34375 7.75V4.03125ZM7 0.75C10.8555 0.75 14 3.89453 14 7.75C14 11.6328 10.8555 14.75 7 14.75C3.11719 14.75 0 11.6328 0 7.75C0 3.89453 3.11719 0.75 7 0.75ZM1.3125 7.75C1.3125 10.8945 3.85547 13.4375 7 13.4375C10.1172 13.4375 12.6875 10.8945 12.6875 7.75C12.6875 4.63281 10.1172 2.0625 7 2.0625C3.85547 2.0625 1.3125 4.63281 1.3125 7.75Z" fill="#0E3B44"/>
</symbol>
<symbol id="magic" viewBox="0 0 20 19" fill="none" xmlns="http://www.w3.org/2000/svg">
<path opacity="0.85" d="M9.09375 0.425781C9.12891 0.320312 9.23438 0.25 9.375 0.25C9.48047 0.25 9.58594 0.320312 9.62109 0.425781L10.1133 1.76172L11.4492 2.25391C11.5547 2.28906 11.625 2.39453 11.625 2.5C11.625 2.64062 11.5547 2.74609 11.4492 2.78125L10.1133 3.27344L9.62109 4.57422C9.58594 4.67969 9.48047 4.75 9.375 4.75C9.23438 4.75 9.12891 4.67969 9.09375 4.57422L8.60156 3.27344L7.26562 2.78125C7.16016 2.74609 7.125 2.64062 7.125 2.5C7.125 2.39453 7.16016 2.28906 7.26562 2.25391L8.60156 1.76172L9.09375 0.425781ZM17.7773 0.777344L18.9727 1.97266C19.6406 2.64062 19.6406 3.69531 18.9727 4.36328L5.57812 17.7578C4.91016 18.4258 3.85547 18.4258 3.1875 17.7578L1.99219 16.5625C1.32422 15.8945 1.32422 14.8398 1.99219 14.1719L15.3867 0.777344C16.0547 0.109375 17.1094 0.109375 17.7773 0.777344ZM16.582 1.9375L12.7148 5.80469L13.9453 7.03516L17.7773 3.16797L16.582 1.9375ZM4.38281 16.5625L12.75 8.23047L11.5195 7L3.1875 15.3672L4.38281 16.5625ZM0.621094 4.39844L2.625 3.625L3.36328 1.65625C3.39844 1.48047 3.57422 1.375 3.75 1.375C3.89062 1.375 4.06641 1.48047 4.10156 1.65625L4.875 3.625L6.84375 4.39844C7.01953 4.43359 7.125 4.60938 7.125 4.75C7.125 4.92578 7.01953 5.10156 6.84375 5.13672L4.875 5.875L4.10156 7.87891C4.06641 8.01953 3.89062 8.125 3.75 8.125C3.57422 8.125 3.39844 8.01953 3.36328 7.87891L2.625 5.875L0.621094 5.13672C0.445312 5.10156 0.375 4.92578 0.375 4.75C0.375 4.60938 0.445312 4.43359 0.621094 4.39844ZM12.9961 13.3984L15 12.625L15.7383 10.6562C15.7734 10.4805 15.9492 10.375 16.125 10.375C16.2656 10.375 16.4414 10.4805 16.4766 10.6562L17.25 12.625L19.2188 13.3984C19.3945 13.4336 19.5 13.6094 19.5 13.75C19.5 13.9258 19.3945 14.1016 19.2188 14.1367L17.25 14.875L16.4766 16.8789C16.4414 17.0195 16.2656 17.125 16.125 17.125C15.9492 17.125 15.7734 17.0195 15.7383 16.8789L15 14.875L12.9961 14.1367C12.8203 14.1016 12.75 13.9258 12.75 13.75C12.75 13.6094 12.8203 13.4336 12.9961 13.3984Z" fill="#0E3B44"/>
</symbol>
<symbol id="download"  viewBox="0 0 42 42" fill="none" xmlns="http://www.w3.org/2000/svg">
<rect width="42" height="42" rx="21" fill="#B8DD62"/>
<path opacity="0.8" d="M14.2227 20.3906L20.457 13.8594C20.6426 13.6738 20.8652 13.5996 21.125 13.5996C21.3477 13.5996 21.5703 13.6738 21.7559 13.8594L27.9902 20.3906C28.3242 20.7617 28.3242 21.3184 27.9531 21.6523C27.6191 21.9863 27.0254 21.9863 26.6914 21.6152L22.0156 16.6797V29.2969C22.0156 29.8164 21.6074 30.1875 21.125 30.1875C20.6797 30.1875 20.2344 29.8164 20.2344 29.2969V16.6797L15.5215 21.6152C15.1875 21.9863 14.5938 21.9863 14.2598 21.6523C13.8887 21.3184 13.8887 20.7246 14.2227 20.3906Z" fill="black"/>
</symbol>
<symbol id="chevron"  viewBox="0 0 16 9" fill="none" xmlns="http://www.w3.org/2000/svg">
<path opacity="0.85" d="M0.527344 6.90234L7.24219 0.46875C7.45312 0.292969 7.66406 0.1875 7.875 0.1875C8.08594 0.1875 8.26172 0.257812 8.4375 0.398438L15.1523 6.83203C15.5039 7.18359 15.5039 7.71094 15.1875 8.02734C14.8711 8.37891 14.3438 8.37891 13.9922 8.0625L7.875 2.22656L1.6875 8.13281C1.37109 8.44922 0.808594 8.44922 0.492188 8.09766C0.175781 7.74609 0.175781 7.21875 0.527344 6.90234Z" fill="#698B1B"/>
</symbol>
<symbol id="arrow-right" viewBox="0 0 21 23" fill="none" xmlns="http://www.w3.org/2000/svg">
<path fill-rule="evenodd" clip-rule="evenodd" d="M19.3594 11.0526C19.3594 13.5259 18.426 15.898 16.7645 17.6469C15.1031 19.3958 12.8497 20.3783 10.5 20.3783C8.15035 20.3783 5.89693 19.3958 4.23548 17.6469C2.57402 15.898 1.64062 13.5259 1.64062 11.0526C1.64062 8.57931 2.57402 6.2073 4.23548 4.4584C5.89693 2.7095 8.15035 1.72697 10.5 1.72697C12.8497 1.72697 15.1031 2.7095 16.7645 4.4584C18.426 6.2073 19.3594 8.57931 19.3594 11.0526ZM21 11.0526C21 13.984 19.8938 16.7953 17.9246 18.868C15.9555 20.9408 13.2848 22.1053 10.5 22.1053C7.71523 22.1053 5.04451 20.9408 3.07538 18.868C1.10625 16.7953 -6.02238e-09 13.984 -4.75996e-09 11.0526C-3.49754e-09 8.12129 1.10625 5.31001 3.07538 3.23724C5.04451 1.16447 7.71523 0 10.5 0C13.2848 0 15.9555 1.16447 17.9246 3.23724C19.8938 5.31001 21 8.12129 21 11.0526ZM9.80437 7.64013L12.0619 10.0164H5.25L5.25 12.0888H12.0619L9.80437 14.4651L11.1956 15.9296L15.1331 11.7849C15.3175 11.5906 15.421 11.3272 15.421 11.0526C15.421 10.778 15.3175 10.5147 15.1331 10.3204L11.1956 6.17566L9.80437 7.64013Z" fill="#5971F8"/>
<path fill-rule="evenodd" clip-rule="evenodd" d="M10.5 0.669856C7.8909 0.669856 5.38693 1.76164 3.53944 3.70788C1.69166 5.65442 0.652174 8.29625 0.652174 11.0526C0.652174 13.809 1.69166 16.4508 3.53944 18.3974C5.38693 20.3436 7.8909 21.4354 10.5 21.4354C13.1091 21.4354 15.6131 20.3436 17.4606 18.3974C19.3083 16.4508 20.3478 13.809 20.3478 11.0526C20.3478 8.29625 19.3083 5.65442 17.4606 3.70788C15.6131 1.76164 13.1091 0.669856 10.5 0.669856ZM3.07248 3.24026C5.04094 1.16659 7.71252 0 10.5 0C13.2875 0 15.9591 1.16659 17.9275 3.24026C19.8957 5.31364 21 8.12399 21 11.0526C21 13.9813 19.8957 16.7916 17.9275 18.865C15.9591 20.9387 13.2875 22.1053 10.5 22.1053C7.71252 22.1053 5.04094 20.9387 3.07248 18.865C1.10429 16.7916 -6.02122e-09 13.9813 -4.75996e-09 11.0526C-3.49871e-09 8.12399 1.10429 5.31364 3.07248 3.24026ZM10.5 2.3445C8.3125 2.3445 6.21288 3.25984 4.6635 4.89203C3.11385 6.52451 2.24185 8.74039 2.24185 11.0526C2.24185 13.3649 3.11385 15.5808 4.6635 17.2132C6.21288 18.8454 8.3125 19.7608 10.5 19.7608C12.6875 19.7608 14.7871 18.8454 16.3365 17.2132C17.8861 15.5808 18.7582 13.3649 18.7582 11.0526C18.7582 8.74039 17.8861 6.52451 16.3365 4.89203C14.7871 3.25984 12.6875 2.3445 10.5 2.3445ZM4.19655 4.42441C5.86689 2.66479 8.13413 1.67464 10.5 1.67464C12.8659 1.67464 15.1331 2.66479 16.8035 4.42441C18.4735 6.18374 19.4103 8.56813 19.4103 11.0526C19.4103 13.5371 18.4735 15.9215 16.8035 17.6809C15.1331 19.4405 12.8659 20.4306 10.5 20.4306C8.13413 20.4306 5.86689 19.4405 4.19655 17.6809C2.52648 15.9215 1.58967 13.5371 1.58967 11.0526C1.58967 8.56813 2.52648 6.18374 4.19655 4.42441ZM11.174 5.84367L15.2227 10.1088C15.4614 10.3606 15.5943 10.7003 15.5943 11.0526C15.5943 11.405 15.4616 11.7445 15.2229 11.9963L11.174 16.2616L9.37055 14.3617L11.24 12.3923H5.08696L5.08696 9.71292H11.24L9.5925 7.97735L9.82598 7.74354L9.5925 7.50973L11.174 5.84367ZM10.2814 7.74354L12.7867 10.3828H5.73913L5.73913 11.7225H12.7867L10.2814 14.3617L11.174 15.302L14.7556 11.529C14.7556 11.529 14.7556 11.529 14.7556 11.529C14.8741 11.404 14.9421 11.2328 14.9421 11.0526C14.9421 10.8725 14.8741 10.7013 14.7557 10.5763C14.7557 10.5763 14.7557 10.5763 14.7557 10.5763L11.174 6.80322L10.2814 7.74354Z" fill="#5971F8"/>
</symbol>
<symbol id="long-text-center" viewBox="0 0 900 917" fill="none" xmlns="http://www.w3.org/2000/svg">
<g filter="url(#filter0_f_120_5337)">
<path fill-rule="evenodd" clip-rule="evenodd" d="M625.445 633.404C520.334 731.143 369.355 768.074 261.853 714.096C163.229 664.574 162.944 536.457 200.69 420.126C235.763 312.03 319.45 210.604 433.651 184.616C553.303 157.388 658.899 209.678 700.252 306.443C743.995 408.799 724.751 541.062 625.445 633.404Z" fill="#0F3B44" fill-opacity="0.05"/>
</g>
<defs>
<filter id="filter0_f_120_5337" x="0.348358" y="0.34201" width="899.114" height="915.738" filterUnits="userSpaceOnUse" color-interpolation-filters="sRGB">
<feFlood flood-opacity="0" result="BackgroundImageFix"/>
<feBlend mode="normal" in="SourceGraphic" in2="BackgroundImageFix" result="shape"/>
<feGaussianBlur stdDeviation="88.5475" result="effect1_foregroundBlur_120_5337"/>
</filter>
</defs>
</symbol>
<symbol id="window-buttons" width="38" height="8" viewBox="0 0 38 8" fill="none" xmlns="http://www.w3.org/2000/svg">
<ellipse cx="4.4186" cy="4" rx="4.4186" ry="4" fill="#F8D65F"/>
<ellipse cx="19.0002" cy="4" rx="3.97674" ry="4" fill="#69C292"/>
<ellipse cx="33.5817" cy="4" rx="4.4186" ry="4" fill="#F15F5F"/>
</symbol>
</svg>